HIERARCHY
ROOT Hips
{
	OFFSET -14.64140 90.27770 -84.91600
	CHANNELS 6 Xposition Yposition Zposition Zrotation Xrotation Yrotation
	JOINT Spine
	{
		OFFSET 0.00000 13.20850 -1.60436
		CHANNELS 3 Zrotation Xrotation Yrotation
		JOINT Spine1
		{
			OFFSET 0.00000 8.61716 0.00000
			CHANNELS 3 Zrotation Xrotation Yrotation
			JOINT Spine2
			{
				OFFSET 0.00000 8.61717 0.00000
				CHANNELS 3 Zrotation Xrotation Yrotation
				JOINT Spine3
				{
					OFFSET 0.00000 8.61717 0.00000
					CHANNELS 3 Zrotation Xrotation Yrotation
					JOINT Neck
					{
						OFFSET 0.00000 11.07920 1.10792
						CHANNELS 3 Zrotation Xrotation Yrotation
						JOINT Neck1
						{
							OFFSET 0.00000 7.08032 0.00000
							CHANNELS 3 Zrotation Xrotation Yrotation
							JOINT Head
							{
								OFFSET 0.00000 7.08031 0.00000
								CHANNELS 3 Zrotation Xrotation Yrotation
								End site
								{
									OFFSET 0.00000 0.00000 0.00000
								}
							}
						}
					}
					JOINT RightShoulder
					{
						OFFSET -0.01000 7.91373 5.19711
						CHANNELS 3 Zrotation Xrotation Yrotation
						JOINT RightArm
						{
							OFFSET -18.41580 0.00000 0.00000
							CHANNELS 3 Zrotation Xrotation Yrotation
							JOINT RightForeArm
							{
								OFFSET -29.11090 0.00000 0.00000
								CHANNELS 3 Zrotation Xrotation Yrotation
								JOINT RightHand
								{
									OFFSET -24.65040 0.00000 0.00000
									CHANNELS 3 Zrotation Xrotation Yrotation
									JOINT RightHandThumb1
									{
										OFFSET -5.35114 -0.85590 3.97906
										CHANNELS 3 Zrotation Xrotation Yrotation
										JOINT RightHandThumb2
										{
											OFFSET -4.52789 0.00000 0.00000
											CHANNELS 3 Zrotation Xrotation Yrotation
											JOINT RightHandThumb3
											{
												OFFSET -2.46976 0.00000 0.00000
												CHANNELS 3 Zrotation Xrotation Yrotation
												End site
												{
													OFFSET 0.00000 0.00000 0.00000
												}
											}
										}
									}
									JOINT RightHandIndex1
									{
										OFFSET -14.26970 0.00000 2.88139
										CHANNELS 3 Zrotation Xrotation Yrotation
										JOINT RightHandIndex2
										{
											OFFSET -5.48836 0.00000 0.00000
											CHANNELS 3 Zrotation Xrotation Yrotation
											JOINT RightHandIndex3
											{
												OFFSET -3.01859 0.00000 0.00000
												CHANNELS 3 Zrotation Xrotation Yrotation
												End site
												{
													OFFSET 0.00000 0.00000 0.00000
												}
											}
										}
									}
									JOINT RightHandMiddle1
									{
										OFFSET -14.26970 0.00000 -0.09147
										CHANNELS 3 Zrotation Xrotation Yrotation
										JOINT RightHandMiddle2
										{
											OFFSET -6.17441 0.00000 0.00000
											CHANNELS 3 Zrotation Xrotation Yrotation
											JOINT RightHandMiddle3
											{
												OFFSET -3.56743 0.00000 0.00000
												CHANNELS 3 Zrotation Xrotation Yrotation
												End site
												{
													OFFSET 0.00000 0.00000 0.00000
												}
											}
										}
									}
									JOINT RightHandRing1
									{
										OFFSET -12.69180 0.00000 -3.06433
										CHANNELS 3 Zrotation Xrotation Yrotation
										JOINT RightHandRing2
										{
											OFFSET -5.62556 0.00000 0.00000
											CHANNELS 3 Zrotation Xrotation Yrotation
											JOINT RightHandRing3
											{
												OFFSET -3.56744 0.00000 0.00000
												CHANNELS 3 Zrotation Xrotation Yrotation
												End site
												{
													OFFSET 0.00000 0.00000 0.00000
												}
											}
										}
									}
									JOINT RightHandPinky1
									{
										OFFSET -11.11390 0.00000 -6.03719
										CHANNELS 3 Zrotation Xrotation Yrotation
										JOINT RightHandPinky2
										{
											OFFSET -4.52789 0.00000 0.00000
											CHANNELS 3 Zrotation Xrotation Yrotation
											JOINT RightHandPinky3
											{
												OFFSET -2.46976 0.00000 0.00000
												CHANNELS 3 Zrotation Xrotation Yrotation
												End site
												{
													OFFSET 0.00000 0.00000 0.00000
												}
											}
										}
									}
								}
							}
						}
					}
					JOINT LeftShoulder
					{
						OFFSET 0.01000 7.91373 5.19711
						CHANNELS 3 Zrotation Xrotation Yrotation
						JOINT LeftArm
						{
							OFFSET 18.41580 0.00000 0.00000
							CHANNELS 3 Zrotation Xrotation Yrotation
							JOINT LeftForeArm
							{
								OFFSET 29.11090 0.00000 0.00000
								CHANNELS 3 Zrotation Xrotation Yrotation
								JOINT LeftHand
								{
									OFFSET 24.65040 0.00000 0.00000
									CHANNELS 3 Zrotation Xrotation Yrotation
									JOINT LeftHandThumb1
									{
										OFFSET 5.35114 -0.85590 3.97906
										CHANNELS 3 Zrotation Xrotation Yrotation
										JOINT LeftHandThumb2
										{
											OFFSET 4.52789 0.00000 0.00000
											CHANNELS 3 Zrotation Xrotation Yrotation
											JOINT LeftHandThumb3
											{
												OFFSET 2.46977 0.00000 0.00000
												CHANNELS 3 Zrotation Xrotation Yrotation
												End site
												{
													OFFSET 0.00000 0.00000 0.00000
												}
											}
										}
									}
									JOINT LeftHandIndex1
									{
										OFFSET 14.26970 0.00000 2.88139
										CHANNELS 3 Zrotation Xrotation Yrotation
										JOINT LeftHandIndex2
										{
											OFFSET 5.48836 0.00000 0.00000
											CHANNELS 3 Zrotation Xrotation Yrotation
											JOINT LeftHandIndex3
											{
												OFFSET 3.01859 0.00000 0.00000
												CHANNELS 3 Zrotation Xrotation Yrotation
												End site
												{
													OFFSET 0.00000 0.00000 0.00000
												}
											}
										}
									}
									JOINT LeftHandMiddle1
									{
										OFFSET 14.26970 0.00000 -0.09147
										CHANNELS 3 Zrotation Xrotation Yrotation
										JOINT LeftHandMiddle2
										{
											OFFSET 6.17440 0.00000 0.00000
											CHANNELS 3 Zrotation Xrotation Yrotation
											JOINT LeftHandMiddle3
											{
												OFFSET 3.56744 0.00000 0.00000
												CHANNELS 3 Zrotation Xrotation Yrotation
												End site
												{
													OFFSET 0.00000 0.00000 0.00000
												}
											}
										}
									}
									JOINT LeftHandRing1
									{
										OFFSET 12.69180 0.00000 -3.06433
										CHANNELS 3 Zrotation Xrotation Yrotation
										JOINT LeftHandRing2
										{
											OFFSET 5.62556 0.00000 0.00000
											CHANNELS 3 Zrotation Xrotation Yrotation
											JOINT LeftHandRing3
											{
												OFFSET 3.56744 0.00000 0.00000
												CHANNELS 3 Zrotation Xrotation Yrotation
												End site
												{
													OFFSET 0.00000 0.00000 0.00000
												}
											}
										}
									}
									JOINT LeftHandPinky1
									{
										OFFSET 11.11390 0.00000 -6.03719
										CHANNELS 3 Zrotation Xrotation Yrotation
										JOINT LeftHandPinky2
										{
											OFFSET 4.52789 0.00000 0.00000
											CHANNELS 3 Zrotation Xrotation Yrotation
											JOINT LeftHandPinky3
											{
												OFFSET 2.46976 0.00000 0.00000
												CHANNELS 3 Zrotation Xrotation Yrotation
												End site
												{
													OFFSET 0.00000 0.00000 0.00000
												}
											}
										}
									}
								}
							}
						}
					}
					JOINT pCube4
					{
						OFFSET 0.00000 10.91090 1.10792
						CHANNELS 3 Zrotation Xrotation Yrotation
						End site
						{
							OFFSET 0.00000 0.00000 0.00000
						}
					}
				}
			}
		}
	}
	JOINT RightUpLeg
	{
		OFFSET -9.98441 0.00000 0.00000
		CHANNELS 3 Zrotation Xrotation Yrotation
		JOINT RightLeg
		{
			OFFSET 0.00000 -42.11790 0.00000
			CHANNELS 3 Zrotation Xrotation Yrotation
			JOINT RightFoot
			{
				OFFSET 0.00000 -45.00020 -0.00001
				CHANNELS 3 Zrotation Xrotation Yrotation
				JOINT RightForeFoot
				{
					OFFSET 0.00000 -3.74820 0.00000
					CHANNELS 3 Zrotation Xrotation Yrotation
					JOINT RightToeBase
					{
						OFFSET 0.00000 0.06325 14.43120
						CHANNELS 3 Zrotation Xrotation Yrotation
						End site
						{
							OFFSET 0.00000 0.00000 0.00000
						}
					}
				}
			}
		}
	}
	JOINT LeftUpLeg
	{
		OFFSET 9.98441 0.00000 0.00000
		CHANNELS 3 Zrotation Xrotation Yrotation
		JOINT LeftLeg
		{
			OFFSET 0.00000 -42.11800 0.00000
			CHANNELS 3 Zrotation Xrotation Yrotation
			JOINT LeftFoot
			{
				OFFSET 0.00000 -45.00070 0.00000
				CHANNELS 3 Zrotation Xrotation Yrotation
				JOINT LeftForeFoot
				{
					OFFSET 0.00000 -3.74824 0.00000
					CHANNELS 3 Zrotation Xrotation Yrotation
					JOINT LeftToeBase
					{
						OFFSET 0.00000 0.06325 14.43110
						CHANNELS 3 Zrotation Xrotation Yrotation
						End site
						{
							OFFSET 0.00000 0.00000 0.00000
						}
					}
				}
			}
		}
	}
}
MOTION
Frames: 4
Frame Time: 0.050000
0.028372631417476136 -0.00018736248252273309 -0.025428720679688096 0.03868746857773244 -0.04410190801960796 -0.01164022658641321 3.490162802713212 4.517612846063049 -1.809421891706159 -0.8394700639526841 3.556197167376003 0.4053200559641744 -0.6472380611662485 -1.123932637561139 -0.4416799988927048 -0.41302077789590724 -0.40177525166897865 -0.5197520936396798 -0.41344252904899614 12.51286342913787 -1.1100299231891195 0.28797104715601873 -0.40441928233609015 -2.4636311281396424 0.7267443538499088 -16.527984367913113 -0.20678365257140416 -9.144288577043161 3.361598169076241 -16.730294404773332 73.04488029593305 -6.57567728260657 1.701187255332392 1.2936533395445649 0.4881585514707974 67.08872413582353 16.248993339890223 -0.3300869036768102 -2.0113478760332497 4.535594068146463 -0.08915202455530205 -1.6040226908597721 0.03794953114492563 -0.023894549775999783 -56.22752273158483 -0.027796409785160476 -0.0013104808720489304 -56.24309721230394 -38.76846833099812 -0.010249735432411573 -0.005489456348364995 -0.023882751941663345 -0.04678514450803198 -0.005972428932570344 0.009983802887955234 0.01738861549930684 0.03780566633896302 -36.68382764117115 -0.0350836407947547 0.01807742630631319 0.02692154847547271 0.04942126042962757 0.04553491147588741 -0.03915904577868168 0.03157099725166938 -0.005408849793864552 -19.728412090701667 0.044987948796024226 0.0015247278206557918 0.031114282790162054 -0.021324522443275963 0.014866065410250416 -0.04443588090594311 0.022198295041889193 -0.006435590534508391 24.074180153406907 -0.011525330943548785 -0.017478622968321395 28.908208363153417 -0.002531751201543606 -0.019286939459609426 28.829230067021868 0.03493118069631811 -0.014737064392577253 11.552023350252846 2.7705384785999536 14.657371586476419 -62.92637404971197 2.076043043174953 -23.37884898072162 -13.026922234536396 -4.263150346297858 -85.46637760636534 -12.177748821559698 -3.2224751812628267 -0.9447314975467056 -0.43512551505130104 0.06708141391700913 -8.083025203846237 -0.03875494571566322 0.011892664433584891 44.51758525778777 0.02959005077926359 0.02983187750214523 44.521334280747965 12.477322188613758 0.027521097559363227 -0.03403151262042175 -0.014699247555339648 0.013510511074715589 -0.018982990901850554 0.008147675876950162 -0.009683023786078175 -0.01639570401675394 11.101527464901068 -0.015651550202773902 8.750117069305618e-05 0.00825113690515493 0.00718817561219242 -0.002166086792677657 0.004847731683559288 -0.021103774049285928 0.004172013684384149 4.799337353384861 -0.013318428827183178 -0.03551293984603519 -0.020542664433409647 0.03440279736088855 -0.03726036446543072 -0.013205974069430164 0.030937926692746767 0.005377353523576005 -5.622344464244898 -0.012307849887031048 -0.005403652685570102 -6.756583510993267 0.03137114652586587 0.003751919944190546 -6.681548650022907 0.008318760188144167 0.021647330514997964 0.0330721754187109 -0.041499163108084026 0.006839021003328002 8.08564096391486 3.4994756618596647 -19.257838058852766 -0.011262398976346658 10.346949662610102 -0.024049422632260783 -5.638362094602122 -15.681954883839365 3.196670215864202 0.009008932888951948 -0.04532816711447376 0.012474722669412913 0.02830386404999308 4.73771387321 0.04181297429523816 12.501776432297996 -8.27610002689793 6.851174223408331 -0.03032332112433387 46.339731366432176 0.022278916507453214 -4.311694713519681 -14.726369879838597 -3.830088368942447 -0.0274165943431331 0.01923151352086087 0.022401485169516636 0.030559931870294356 -10.785845508771718 -0.014194040895634847 
0.00963331212505683 0.026874165027205743 -0.04356779689831614 -0.0010709563901336642 0.04703502090236488 -0.007565736074341244 3.4862320100108826 4.473192561618638 -1.8431782134583654 -0.8351895402770753 3.479437691607588 0.41070070280621895 -0.7029457037297305 -1.2212935047799274 -0.5562519065292111 -0.4636545006997707 -0.40337446940869154 -0.5447253786520172 -0.4350608984427775 12.649822479374091 -0.9606481222150983 0.3655211621732206 -0.39507300806375534 -2.1232156072878574 0.6606849134259833 -16.656550556825188 -0.20134755049956873 -9.368823822088796 3.39513106549132 -16.91568614550318 73.2580107020307 -6.6417460015135275 1.0642637186480142 1.3129879802771327 -0.23243001765072055 67.67425538606663 16.03861708501625 -0.3464847524507464 -1.9327165635183352 4.488095520446858 -0.12018763127058539 -1.5774284568774481 -0.029670967861810546 -0.0413474455830129 -56.248741619511996 0.0007504608420969345 -0.029173157793839916 -56.26188586288565 -38.81566589677256 0.0020541503173901595 0.01842581119918912 -0.03580151653430819 0.014691817585785244 0.002765691508710159 -0.003901726805612812 -0.011871114842936424 -0.01624304090470897 -36.70569560706945 0.048900874442251885 0.003115494449950328 -0.04422713185495214 -0.045120844228657656 -0.016216811597103836 0.03917279872513421 0.023729749519557256 -0.02153851980693328 -19.772399731435417 0.041336002514785655 -0.004556352998964592 -0.0014594957476678988 -0.04606886703578504 0.00035226779994686734 0.011732352877599914 -0.04244731525599357 -0.0024015915786818253 24.06854300179819 0.03295060922988444 -0.040908363899975646 28.893359513443755 -0.031211935777213574 0.02886352273240191 28.826513867602095 -0.025467704794129107 0.022256200943637276 11.917155975523578 2.8238848360875997 14.814022383281449 -62.39546704762277 1.6128705296727717 -24.17710468053072 -12.593095946404999 -5.086026538998925 -86.36337787038879 -11.953313811780038 -3.4325380963751875 -0.9045053239149065 -0.4854192086679049 0.07359901716182805 -8.11490150519234 0.04046337799923488 0.002139882295154601 44.5392047721447 0.0015991815541049384 0.02412409716195981 44.569613423991704 12.456283785846153 -0.008794772033114719 0.04432276497399296 0.027317475864259384 0.015605349932572508 -0.0032406962560408924 -0.028512548555830828 -0.030996753116046615 -0.018872357852096962 11.081630203461213 0.0455908480208921 0.026129861097077666 0.008054689615598073 0.018987306605837726 -0.017602030519741414 0.026136584145108832 0.017712324614509462 -0.03254945554886716 4.757633824766298 -0.039159823304741805 0.04743772056889185 -0.04455638503123684 0.020021736633703838 0.008633338064282556 -0.046202021541313365 6.456409119780877e-05 -0.020055484305658455 -5.590505777491082 -0.0170283233012203 0.01969109912008611 -6.705537453819861 -0.007395651434960382 -0.009395200491984425 -6.719907103411094 -0.004550011383827804 0.03425021477951914 -0.034513883671428686 -0.0047096829457582675 -0.017460075948142872 8.01378702778334 3.449581454062572 -19.19251592152447 -0.010253110747137742 10.353190757882492 0.015229404704669389 -5.654923091531323 -15.633116423494446 3.237387586490102 -0.020509490086526316 0.0013540836535227696 0.021948230780054978 0.0006892956297738438 4.660327551808463 -0.04986383547704925 12.436274190167822 -8.231506995233955 6.847487217891575 -0.01501863369866014 46.33969193829515 -0.04761417743667469 -4.3215643730321815 -14.711311037374344 -3.8079417642042865 -0.0011190300413268823 -0.03839081964342286 -0.001003961669364574 0.017509106000244468 -10.766168005099196 0.033123985428040036 
0.024297305617176926 0.0422703834617993 -0.01634473459220871 -0.018122468038077173 0.021691611861732674 -0.008039933983729234 3.5670787091916116 4.4140832741138505 -1.833353755416128 -0.8134731577165537 3.4639626907765444 0.3604085723125646 -0.6632435301631765 -1.166612158260214 -0.6743254081610516 -0.4194092950663881 -0.40692284097946785 -0.5481396223059172 -0.475110830771745 12.60041431488611 -0.8357611044950223 0.34320791711790266 -0.4320450377966954 -1.7659112032855533 0.6535002014555121 -16.709457861225886 -0.19243922740516042 -9.435286653965388 3.3350692871667267 -17.07691255221424 73.5596914214485 -6.476418262265145 0.17398270383510014 1.0822958408849526 -0.9769715139571802 68.01153699746992 16.40298527519268 -0.4108752724607821 -1.9872433205874236 4.5449769288451005 -0.10269790044966341 -1.614086682643729 0.024967380416308294 -0.004671059584219233 -56.27924385728401 -0.03914705160745818 -0.03171089555871866 -56.274715198781315 -38.759571124965724 0.0030887278483259636 -0.0052799218868069386 -0.00728964175785511 0.00841924242399815 0.025219477966350476 -0.01922998527356644 0.02213794529790851 -0.02365312281501016 -36.693288422851104 0.026980729037004936 0.021087006867162635 0.030127065509888532 -0.014112893785028278 0.043785249084046025 -0.046040474965866454 0.019256771889406842 0.016904116537186566 -19.799075746384496 0.008892414169186617 0.013626579107135899 0.01838496838988926 0.004936373925457788 0.03782005279692942 0.019148998266987294 0.0002505726919852421 0.0018744046635514723 24.02436122908243 0.04977467887859746 -0.013983809853577937 28.86523099142355 -0.0029795225735500747 0.04254560184459516 28.841809748919545 -0.020153350003390767 -0.039987604710682786 12.177739805526272 2.8250999297162513 14.790035292320976 -62.06761844424622 1.2706191174058161 -24.72170396665699 -12.843009972837526 -5.778547108824549 -87.35068877894622 -12.068489633290742 -3.6056930020122007 -0.9191929809542491 -0.4473292817303243 0.03787322033410724 -8.111287548338723 -0.01640129410393136 -0.018783406929334275 44.598354658011665 0.03632396948562535 -0.02387953502816656 44.557013398775894 12.469311816914773 0.04293078878911939 0.03245282474848029 -0.0012089155751148562 -0.006759598192342601 -0.01682314808295061 -0.029954378894483182 0.002348077441022538 0.038142409996209 11.09093207440984 0.039038725212080974 -0.030201778549745678 0.03954045020184508 0.044838520067336775 0.0428226883161414 -0.013497333427536446 0.04868379833322548 -0.03896544844967948 4.777668316089983 0.002600812605779148 -0.043108100206937686 -0.007920743772981005 0.013316633457012431 -0.003500737591726934 0.02758573164235122 0.022633459724409635 0.0004965329777301812 -5.573497455441965 -0.031655923699661 -0.0421358752260337 -6.673575413639263 -0.03177431461067504 0.007579523168284881 -6.690523559905287 -0.026533897624405174 0.011586495312331085 0.010686881283970558 0.013945992155000723 0.022816342995318286 8.044978658864991 3.487584224538167 -19.21226143766394 0.03484621408160268 10.399419594183614 0.03288389672940081 -5.646182514243784 -15.678281416851915 3.2226750809459817 7.734514746466869e-05 -0.014538039613181706 0.02597591080220399 -0.03886472161737047 4.743650336101211 0.03951568721385941 12.483588408317244 -8.254631996362146 6.877365273578951 0.041206376520102166 46.397298321911265 -0.030445154242495748 -4.368333926247927 -14.777157239665273 -3.805590911744758 -0.007123834288700235 -0.016525714842225953 -0.03968846551719506 0.0011233629860893306 -10.721251669486524 0.002587827887173026 
-0.007685036189668941 0.007781341218980678 -0.048744957606634706 0.019367424782608306 -0.038913386695812346 -0.013801128720357037 3.3768145283092683 4.544778469513472 -1.848165887969864 -0.7768520803091647 3.469823428873827 0.39755477824829694 -0.6292141554395423 -1.1469068455584177 -0.8367048771355116 -0.42400049378671834 -0.399749448389713 -0.5547771251771927 -0.530957399487611 12.427625652776905 -0.8965200086584793 0.3614340959894992 -0.46651604002957403 -1.8419242219123573 0.6787703573307163 -16.723887206709964 -0.1332151219744784 -9.066315482782386 3.329667889746674 -16.908934883351016 73.56980972558962 -6.747382101021695 -0.8348826507356498 0.38417677724716004 -1.2679989436849075 68.15016339814433 17.397966012038022 -0.39342733437634086 -2.120962522799857 4.4938829123848585 -0.146360881040139 -1.5783768910780382 0.008419772114215004 -0.032887496973848934 -56.233404963516676 0.01110796960771932 -0.006685050280570581 -56.21258589149449 -38.7391832021827 0.04092854484368923 -0.00902748200461374 0.01214243286562427 -0.008546645224660112 -0.04582725966052307 0.0169399015736739 0.03821926075585047 -0.027839870199863455 -36.68276760219738 -0.03388206145687248 0.013804437472338053 0.031026501189820664 -0.010411451214542304 -0.010284922337592893 -0.004031525448756335 0.046430208451363496 0.040022557660174096 -19.779789220468306 -0.03606156556512568 0.019749184320767117 -0.0008468367951370824 0.010325845143368182 0.0017167452402792275 0.020284902935145795 0.028351638391333193 -0.00499267597849476 24.04300160785941 0.0333252635550732 -0.027034462485544496 28.877872317716285 -0.005261718985382478 -0.03446443498726199 28.898807996568934 -0.04378336225382874 0.0203137857101178 11.926568397395645 2.806421008267466 14.72379415532955 -61.32089572239807 0.9873509067638278 -25.02025598343815 -13.372695876193577 -6.0846492108003565 -88.69150042079174 -12.430755687858115 -3.6483303702187344 -1.0449388399268913 -0.42737282992278847 0.031648769780583515 -8.127064952232294 -0.006968078375558179 0.032120946432059753 44.56145021280592 -0.03188845910554057 -0.017100775298379466 44.5684494897496 12.434314435730492 0.01771350994751759 -0.033274695212177775 -0.03765516469237846 -0.03319204669526447 -0.017305688637992585 -0.0004804624209984949 -0.037091173250809385 0.030547125559559515 11.063114819984513 0.03301473217995063 -0.02477028285667011 -0.030684007135428428 -0.012336903083873708 0.0210099574549385 -0.0048085229248761956 0.04019666071937372 0.005251606127786617 4.810709615034876 -0.025502313529821845 0.02860868567601213 0.043419448751110284 0.03365383823369273 -0.005761322213901697 -0.006686686583002757 0.046460945902489205 -0.015107881121304123 -5.643602562505527 -0.017649675629243626 0.03459239484169823 -6.747151762001888 -0.017480406994763865 0.019205279120049417 -6.742708076282641 0.02366045677481084 0.04613313339364559 0.01690303123957884 -0.024768303939444236 0.04601210371704845 8.05123464652025 3.468009614024288 -19.205093492808594 0.02412340190254475 10.407364274558724 0.003748784495928699 -5.577162539307652 -15.682100730003071 3.1652983633098866 0.03950523148863556 -0.01648479319611771 -0.037365988654768166 0.006670731856925131 4.688445578443115 -0.03425467452790795 12.465157116960357 -8.258102902915942 6.852987629808606 0.002690707417691318 46.39564405771855 -0.03182260541485336 -4.316965657375446 -14.75367914302897 -3.82885696571752 0.01876072979519085 0.03465636976053207 -0.022118409640650125 0.025681817521364895 -10.718723494724468 -0.03160078982874909 
